<?xml version="1.0" encoding="utf-8" standalone="no"?>
<!DOCTYPE svg PUBLIC "-//W3C//DTD SVG 1.1//EN"
  "http://www.w3.org/Graphics/SVG/1.1/DTD/svg11.dtd">
<!-- Created with matplotlib (https://matplotlib.org/) -->
<svg height="252.317344pt" version="1.1" viewBox="0 0 305.25825 252.317344" width="305.25825pt" xmlns="http://www.w3.org/2000/svg" xmlns:xlink="http://www.w3.org/1999/xlink">
 <defs>
  <style type="text/css">
*{stroke-linecap:butt;stroke-linejoin:round;}
  </style>
 </defs>
 <g id="figure_1">
  <g id="patch_1">
   <path d="M 0 252.317344 
L 305.25825 252.317344 
L 305.25825 0 
L 0 0 
z
" style="fill:none;"/>
  </g>
  <g id="axes_1">
   <g id="patch_2">
    <path d="M 30.103125 228.439219 
L 247.543125 228.439219 
L 247.543125 10.999219 
L 30.103125 10.999219 
z
" style="fill:#ffffff;"/>
   </g>
   <g id="PathCollection_1">
    <path clip-path="url(#p40a5f22621)" d="M 30.103125 10.999219 
L 30.103125 10.999219 
L 30.103125 27.307219 
L 30.103125 38.179219 
L 30.103125 65.359219 
L 30.103125 92.539219 
L 30.103125 119.719219 
L 30.103125 146.899219 
L 30.103125 174.079219 
L 30.103125 201.259219 
L 30.103125 228.439219 
L 37.60033 228.439219 
L 37.483542 221.158273 
L 37.483542 204.392124 
L 37.400687 197.259267 
L 37.400687 179.319116 
L 37.160974 170.625538 
L 37.160974 151.162535 
L 36.80596 144.445811 
L 36.80596 126.422054 
L 36.481744 119.719219 
L 33.992033 115.830311 
L 33.992033 93.962658 
L 33.179505 90.646685 
L 33.179505 66.673656 
L 32.777184 63.709658 
L 32.777184 39.768993 
L 32.623411 37.25673 
L 32.623411 13.519504 
L 32.653737 10.999219 
" style="fill:#450559;"/>
   </g>
   <g id="PathCollection_2">
    <path clip-path="url(#p40a5f22621)" d="M 32.653737 10.999219 
L 32.623411 13.519504 
L 32.623411 37.25673 
L 32.777184 39.768993 
L 32.777184 63.709658 
L 33.179505 66.673656 
L 33.179505 90.646685 
L 33.992033 93.962658 
L 33.992033 115.830311 
L 36.481744 119.719219 
L 36.80596 126.422054 
L 36.80596 144.445811 
L 37.160974 151.162535 
L 37.160974 170.625538 
L 37.400687 179.319116 
L 37.400687 197.259267 
L 37.483542 204.392124 
L 37.483542 221.158273 
L 37.60033 228.439219 
L 45.097535 228.439219 
L 44.863959 213.877327 
L 44.863959 207.525029 
L 44.698248 193.259315 
L 44.698248 184.559014 
L 44.218823 167.171858 
L 44.218823 155.42585 
L 43.508795 141.992403 
L 43.508795 133.124889 
L 42.860363 119.719219 
L 37.880941 111.941403 
L 37.880941 95.386097 
L 36.255884 88.754151 
L 36.255884 67.988094 
L 35.451244 62.060097 
L 35.451244 41.358767 
L 35.143696 36.334242 
L 35.143696 16.03979 
L 35.20435 10.999219 
" style="fill:#471063;"/>
   </g>
   <g id="PathCollection_3">
    <path clip-path="url(#p40a5f22621)" d="M 35.20435 10.999219 
L 35.143696 16.03979 
L 35.143696 36.334242 
L 35.451244 41.358767 
L 35.451244 62.060097 
L 36.255884 67.988094 
L 36.255884 88.754151 
L 37.880941 95.386097 
L 37.880941 111.941403 
L 42.860363 119.719219 
L 43.508795 133.124889 
L 43.508795 141.992403 
L 44.218823 155.42585 
L 44.218823 167.171858 
L 44.698248 184.559014 
L 44.698248 193.259315 
L 44.863959 207.525029 
L 44.863959 213.877327 
L 45.097535 228.439219 
L 52.594739 228.439219 
L 52.407008 216.735406 
L 52.467383 209.011319 
L 52.043421 189.853409 
L 52.029615 189.400196 
L 51.910879 186.71877 
L 51.276672 163.718178 
L 51.276672 159.689166 
L 50.28285 140.886447 
L 50.232392 139.636109 
L 50.177929 139.130976 
L 49.238982 119.719219 
L 41.769848 108.052495 
L 41.769848 96.809536 
L 39.332264 86.861617 
L 39.332264 69.302531 
L 38.125303 60.410536 
L 38.125303 42.948541 
L 37.663982 35.411753 
L 37.663982 18.560076 
L 37.754962 10.999219 
" style="fill:#481a6c;"/>
   </g>
   <g id="PathCollection_4">
    <path clip-path="url(#p40a5f22621)" d="M 37.754962 10.999219 
L 37.663982 18.560076 
L 37.663982 35.411753 
L 38.125303 42.948541 
L 38.125303 60.410536 
L 39.332264 69.302531 
L 39.332264 86.861617 
L 41.769848 96.809536 
L 41.769848 108.052495 
L 49.238982 119.719219 
L 50.177929 139.130976 
L 50.232392 139.636109 
L 50.28285 140.886447 
L 51.276672 159.689166 
L 51.276672 163.718178 
L 51.910879 186.71877 
L 52.029615 189.400196 
L 52.043421 189.853409 
L 52.467383 209.011319 
L 52.407008 216.735406 
L 52.594739 228.439219 
L 57.283125 228.439219 
L 60.416958 228.439219 
L 60.291669 224.288064 
L 60.419592 207.922293 
L 60.156342 196.026569 
L 59.906099 187.812027 
L 58.971201 166.699092 
L 58.788438 162.264573 
L 58.301954 157.814488 
L 57.593629 140.262387 
L 55.812008 123.738384 
L 55.617601 119.719219 
L 45.658756 104.163588 
L 45.658756 98.232975 
L 42.408644 84.969084 
L 42.408644 70.616969 
L 40.799363 58.760976 
L 40.799363 44.538316 
L 40.184268 34.489264 
L 40.184268 21.080362 
L 40.305574 10.999219 
" style="fill:#482374;"/>
   </g>
   <g id="PathCollection_5">
    <path clip-path="url(#p40a5f22621)" d="M 40.305574 10.999219 
L 40.184268 21.080362 
L 40.184268 34.489264 
L 40.799363 44.538316 
L 40.799363 58.760976 
L 42.408644 70.616969 
L 42.408644 84.969084 
L 45.658756 98.232975 
L 45.658756 104.163588 
L 55.617601 119.719219 
L 55.812008 123.738384 
L 57.593629 140.262387 
L 58.301954 157.814488 
L 58.788438 162.264573 
L 58.971201 166.699092 
L 59.906099 187.812027 
L 60.156342 196.026569 
L 60.419592 207.922293 
L 60.291669 224.288064 
L 60.416958 228.439219 
L 68.781679 228.439219 
L 68.321974 213.207944 
L 68.371801 206.833267 
L 68.269262 202.19973 
L 67.782583 186.223858 
L 67.361284 176.709608 
L 66.796094 162.995991 
L 65.291656 149.234236 
L 64.954866 140.888666 
L 63.724862 129.480748 
L 62.724452 119.719219 
L 59.152611 116.898258 
L 50.991295 102.529618 
L 49.547664 100.27468 
L 49.547664 99.656414 
L 45.485023 83.07655 
L 45.485023 71.931407 
L 43.473422 57.111415 
L 43.473422 46.12809 
L 42.704554 33.566776 
L 42.704554 23.600647 
L 42.856187 10.999219 
" style="fill:#472c7a;"/>
   </g>
   <g id="PathCollection_6">
    <path clip-path="url(#p40a5f22621)" d="M 42.856187 10.999219 
L 42.704554 23.600647 
L 42.704554 33.566776 
L 43.473422 46.12809 
L 43.473422 57.111415 
L 45.485023 71.931407 
L 45.485023 83.07655 
L 49.547664 99.656414 
L 49.547664 100.27468 
L 50.991295 102.529618 
L 59.152611 116.898258 
L 62.724452 119.719219 
L 63.724862 129.480748 
L 64.954866 140.888666 
L 65.291656 149.234236 
L 66.796094 162.995991 
L 67.361284 176.709608 
L 67.782583 186.223858 
L 68.269262 202.19973 
L 68.371801 206.833267 
L 68.321974 213.207944 
L 68.781679 228.439219 
L 77.1464 228.439219 
L 76.670328 212.665668 
L 76.718011 206.892729 
L 76.582929 204.123565 
L 75.854104 185.287309 
L 75.571871 182.364869 
L 74.80375 163.727409 
L 72.545978 143.074582 
L 72.409924 141.505491 
L 72.21453 140.462577 
L 70.088646 119.719219 
L 61.682741 113.08042 
L 53.941655 99.451631 
L 51.624984 93.686661 
L 48.561403 81.184016 
L 48.561403 73.245844 
L 46.147482 55.461854 
L 46.147482 47.717864 
L 45.224839 32.644287 
L 45.224839 26.120933 
L 45.406799 10.999219 
" style="fill:#463480;"/>
   </g>
   <g id="PathCollection_7">
    <path clip-path="url(#p40a5f22621)" d="M 45.406799 10.999219 
L 45.224839 26.120933 
L 45.224839 32.644287 
L 46.147482 47.717864 
L 46.147482 55.461854 
L 48.561403 73.245844 
L 48.561403 81.184016 
L 51.624984 93.686661 
L 53.941655 99.451631 
L 61.682741 113.08042 
L 70.088646 119.719219 
L 72.21453 140.462577 
L 72.409924 141.505491 
L 72.545978 143.074582 
L 74.80375 163.727409 
L 75.571871 182.364869 
L 75.854104 185.287309 
L 76.582929 204.123565 
L 76.718011 206.892729 
L 76.670328 212.665668 
L 77.1464 228.439219 
L 84.463125 228.439219 
L 85.671749 228.439219 
L 85.609557 227.036448 
L 85.758725 208.976638 
L 85.250453 198.557089 
L 84.815855 187.325035 
L 82.963158 168.140895 
L 82.811406 164.458826 
L 82.365354 160.378596 
L 80.774423 142.030685 
L 78.489611 129.835541 
L 77.45284 119.719219 
L 64.21287 109.262582 
L 58.402172 99.032391 
L 53.463696 86.743138 
L 51.637782 79.291482 
L 51.637782 74.560282 
L 48.821541 53.812293 
L 48.821541 49.307638 
L 47.745125 31.721799 
L 47.745125 28.641219 
L 47.957411 10.999219 
" style="fill:#443b84;"/>
   </g>
   <g id="PathCollection_8">
    <path clip-path="url(#p40a5f22621)" d="M 47.957411 10.999219 
L 47.745125 28.641219 
L 47.745125 31.721799 
L 48.821541 49.307638 
L 48.821541 53.812293 
L 51.637782 74.560282 
L 51.637782 79.291482 
L 53.463696 86.743138 
L 58.402172 99.032391 
L 64.21287 109.262582 
L 77.45284 119.719219 
L 78.489611 129.835541 
L 80.774423 142.030685 
L 82.365354 160.378596 
L 82.811406 164.458826 
L 82.963158 168.140895 
L 84.815855 187.325035 
L 85.250453 198.557089 
L 85.758725 208.976638 
L 85.609557 227.036448 
L 85.671749 228.439219 
L 95.318554 228.439219 
L 94.759963 215.840034 
L 94.79944 211.060547 
L 93.917978 192.990613 
L 93.777606 189.362761 
L 92.909643 180.375246 
L 91.830548 164.895853 
L 90.292173 155.856105 
L 89.138922 142.555878 
L 85.045221 120.705819 
L 84.880771 119.719219 
L 84.560058 119.554926 
L 84.168117 119.206719 
L 66.743 105.444743 
L 62.862689 98.613152 
L 55.302408 79.799615 
L 54.714162 77.398949 
L 54.714162 75.874719 
L 51.495601 52.162732 
L 51.495601 50.897412 
L 50.539183 35.272035 
L 50.327084 30.93922 
L 50.277723 30.138334 
L 50.508023 10.999219 
" style="fill:#414487;"/>
   </g>
   <g id="PathCollection_9">
    <path clip-path="url(#p40a5f22621)" d="M 50.508023 10.999219 
L 50.277723 30.138334 
L 50.327084 30.93922 
L 50.539183 35.272035 
L 51.495601 50.897412 
L 51.495601 52.162732 
L 54.714162 75.874719 
L 54.714162 77.398949 
L 55.302408 79.799615 
L 62.862689 98.613152 
L 66.743 105.444743 
L 84.168117 119.206719 
L 84.560058 119.554926 
L 84.880771 119.719219 
L 85.045221 120.705819 
L 89.138922 142.555878 
L 90.292173 155.856105 
L 91.830548 164.895853 
L 92.909643 180.375246 
L 93.777606 189.362761 
L 93.917978 192.990613 
L 94.79944 211.060547 
L 94.759963 215.840034 
L 95.318554 228.439219 
L 104.965358 228.439219 
L 104.582318 219.799634 
L 104.634545 210.137357 
L 103.679007 193.349831 
L 103.312509 188.817981 
L 102.382553 182.486256 
L 101.18006 165.236727 
L 97.600849 144.204687 
L 97.503421 143.081072 
L 97.157582 141.23516 
L 93.571222 119.719219 
L 86.577062 116.136289 
L 78.029552 108.542536 
L 69.273129 101.626905 
L 67.323206 98.193913 
L 61.527458 83.771364 
L 58.302673 76.354785 
L 57.71224 74.646317 
L 54.671632 51.960659 
L 54.346856 50.002988 
L 53.433594 31.34662 
L 52.915036 22.93306 
L 53.058636 10.999219 
" style="fill:#3e4c8a;"/>
   </g>
   <g id="PathCollection_10">
    <path clip-path="url(#p40a5f22621)" d="M 53.058636 10.999219 
L 52.915036 22.93306 
L 53.433594 31.34662 
L 54.346856 50.002988 
L 54.671632 51.960659 
L 57.71224 74.646317 
L 58.302673 76.354785 
L 61.527458 83.771364 
L 67.323206 98.193913 
L 69.273129 101.626905 
L 78.029552 108.542536 
L 86.577062 116.136289 
L 93.571222 119.719219 
L 97.157582 141.23516 
L 97.503421 143.081072 
L 97.600849 144.204687 
L 101.18006 165.236727 
L 102.382553 182.486256 
L 103.312509 188.817981 
L 103.679007 193.349831 
L 104.634545 210.137357 
L 104.582318 219.799634 
L 104.965358 228.439219 
L 111.643125 228.439219 
L 115.192672 228.439219 
L 114.833096 222.914027 
L 114.916286 207.523464 
L 114.437703 199.115399 
L 113.37033 185.917031 
L 110.661967 167.476789 
L 110.529571 165.577601 
L 110.077653 162.922052 
L 107.236591 143.165015 
L 104.381395 132.436245 
L 102.261672 119.719219 
L 88.594066 112.717653 
L 71.890987 97.878353 
L 71.803259 97.809067 
L 71.783723 97.774673 
L 71.725658 97.630178 
L 62.355074 76.079077 
L 60.639393 71.114609 
L 58.169421 52.686408 
L 57.311692 47.516222 
L 56.540105 31.75402 
L 55.552349 15.727786 
L 55.609248 10.999219 
" style="fill:#3a538b;"/>
   </g>
   <g id="PathCollection_11">
    <path clip-path="url(#p40a5f22621)" d="M 55.609248 10.999219 
L 55.552349 15.727786 
L 56.540105 31.75402 
L 57.311692 47.516222 
L 58.169421 52.686408 
L 60.639393 71.114609 
L 62.355074 76.079077 
L 71.725658 97.630178 
L 71.783723 97.774673 
L 71.803259 97.809067 
L 71.890987 97.878353 
L 88.594066 112.717653 
L 102.261672 119.719219 
L 104.381395 132.436245 
L 107.236591 143.165015 
L 110.077653 162.922052 
L 110.529571 165.577601 
L 110.661967 167.476789 
L 113.37033 185.917031 
L 114.437703 199.115399 
L 114.916286 207.523464 
L 114.833096 222.914027 
L 115.192672 228.439219 
L 126.725628 228.439219 
L 125.197744 204.961931 
L 125.198027 204.909571 
L 125.196398 204.880967 
L 123.428151 183.016081 
L 123.143808 181.0801 
L 121.271122 164.976479 
L 118.676036 154.102157 
L 117.108895 143.204101 
L 111.108253 120.655907 
L 110.952122 119.719219 
L 90.61107 109.299016 
L 77.294532 97.468377 
L 74.149447 93.60888 
L 66.407474 75.803368 
L 63.566545 67.5829 
L 61.667209 53.412156 
L 60.276527 45.029456 
L 59.646615 32.161421 
L 58.443922 12.64785 
L 58.433972 10.999219 
L 57.283125 10.999219 
" style="fill:#375b8d;"/>
   </g>
   <g id="PathCollection_12">
    <path clip-path="url(#p40a5f22621)" d="M 58.433972 10.999219 
L 58.443922 12.64785 
L 59.646615 32.161421 
L 60.276527 45.029456 
L 61.667209 53.412156 
L 63.566545 67.5829 
L 66.407474 75.803368 
L 74.149447 93.60888 
L 77.294532 97.468377 
L 90.61107 109.299016 
L 110.952122 119.719219 
L 111.108253 120.655907 
L 117.108895 143.204101 
L 118.676036 154.102157 
L 121.271122 164.976479 
L 123.143808 181.0801 
L 123.428151 183.016081 
L 125.196398 204.880967 
L 125.198027 204.909571 
L 125.197744 204.961931 
L 126.725628 228.439219 
L 138.258585 228.439219 
L 138.186865 227.337184 
L 138.142483 205.234238 
L 136.470917 193.400771 
L 135.610257 183.743389 
L 132.843271 169.69471 
L 132.209218 164.242356 
L 128.693704 149.511123 
L 127.351375 143.155397 
L 126.565013 140.989559 
L 121.411367 119.719219 
L 113.33442 116.800423 
L 108.335595 113.926942 
L 92.628073 105.880379 
L 82.816078 97.163236 
L 76.493754 89.404783 
L 70.459875 75.527659 
L 66.493698 64.051192 
L 65.164998 54.137905 
L 63.241363 42.54269 
L 62.753125 32.568821 
L 61.820932 17.444072 
L 61.782036 10.999219 
" style="fill:#33628d;"/>
   </g>
   <g id="PathCollection_13">
    <path clip-path="url(#p40a5f22621)" d="M 152.722421 228.439219 
L 151.103948 209.497788 
L 151.096059 205.56897 
L 149.764564 196.142955 
L 148.632331 184.521181 
L 147.670398 180.840583 
L 144.765106 163.836636 
L 142.081262 155.57513 
L 139.359491 142.687955 
L 134.036029 128.025813 
L 132.023402 119.719219 
L 115.17181 113.629497 
L 104.742356 107.634322 
L 94.645077 102.461743 
L 88.337624 96.858094 
L 78.838062 85.200687 
L 74.512275 75.251951 
L 69.42085 60.519483 
L 68.662787 54.863654 
L 66.206199 40.055924 
L 65.859635 32.976221 
L 65.197941 22.240295 
L 65.130099 10.999219 
L 61.782036 10.999219 
L 61.820932 17.444072 
L 62.753125 32.568821 
L 63.241363 42.54269 
L 65.164998 54.137905 
L 66.493698 64.051192 
L 70.459875 75.527659 
L 76.493754 89.404783 
L 82.816078 97.163236 
L 92.628073 105.880379 
L 108.335595 113.926942 
L 113.33442 116.800423 
L 121.411367 119.719219 
L 126.565013 140.989559 
L 127.351375 143.155397 
L 128.693704 149.511123 
L 132.209218 164.242356 
L 132.843271 169.69471 
L 135.610257 183.743389 
L 136.470917 193.400771 
L 138.142483 205.234238 
L 138.186865 227.337184 
L 138.258585 228.439219 
L 138.823125 228.439219 
" style="fill:#30698e;"/>
   </g>
   <g id="PathCollection_14">
    <path clip-path="url(#p40a5f22621)" d="M 167.861561 228.439219 
L 167.530972 225.763593 
L 167.329691 205.311688 
L 164.238976 190.227635 
L 163.655799 184.241631 
L 158.621535 164.979268 
L 158.394207 163.648771 
L 153.766455 149.403457 
L 151.563657 142.290692 
L 151.242849 141.663093 
L 143.746395 119.719219 
L 139.419775 118.61023 
L 137.820331 117.979166 
L 117.009201 110.458572 
L 101.149117 101.341701 
L 96.662081 99.043106 
L 93.85917 96.552953 
L 81.182369 80.996591 
L 78.564676 74.976242 
L 72.348003 56.987774 
L 72.160576 55.589403 
L 69.171034 37.569158 
L 68.966145 33.383622 
L 68.57495 27.036518 
L 68.478162 10.999219 
L 65.130099 10.999219 
L 65.197941 22.240295 
L 65.859635 32.976221 
L 66.206199 40.055924 
L 68.662787 54.863654 
L 69.42085 60.519483 
L 74.512275 75.251951 
L 78.838062 85.200687 
L 88.337624 96.858094 
L 94.645077 102.461743 
L 104.742356 107.634322 
L 115.17181 113.629497 
L 132.023402 119.719219 
L 134.036029 128.025813 
L 139.359491 142.687955 
L 142.081262 155.57513 
L 144.765106 163.836636 
L 147.670398 180.840583 
L 148.632331 184.521181 
L 149.764564 196.142955 
L 151.096059 205.56897 
L 151.103948 209.497788 
L 152.722421 228.439219 
L 166.003125 228.439219 
" style="fill:#2d708e;"/>
   </g>
   <g id="PathCollection_15">
    <path clip-path="url(#p40a5f22621)" d="M 188.22198 228.439219 
L 186.907835 217.803178 
L 186.779266 205.423725 
L 184.286911 197.762042 
L 182.378085 184.500749 
L 177.782638 171.895789 
L 176.672752 167.073562 
L 171.021578 152.706705 
L 168.159631 143.465572 
L 160.331448 128.151213 
L 157.450915 119.719219 
L 141.080622 115.523227 
L 135.028934 113.135518 
L 118.846592 107.287646 
L 99.737447 96.303113 
L 98.703076 95.503383 
L 94.586566 90.364661 
L 83.526677 76.792494 
L 82.617076 74.700533 
L 79.704173 66.271803 
L 75.895785 55.124918 
L 73.399157 42.697183 
L 72.13587 35.082391 
L 72.072655 33.791022 
L 71.951959 31.83274 
L 71.826226 10.999219 
L 68.478162 10.999219 
L 68.57495 27.036518 
L 68.966145 33.383622 
L 69.171034 37.569158 
L 72.160576 55.589403 
L 72.348003 56.987774 
L 78.564676 74.976242 
L 81.182369 80.996591 
L 93.85917 96.552953 
L 96.662081 99.043106 
L 101.149117 101.341701 
L 117.009201 110.458572 
L 137.820331 117.979166 
L 139.419775 118.61023 
L 143.746395 119.719219 
L 151.242849 141.663093 
L 151.563657 142.290692 
L 153.766455 149.403457 
L 158.394207 163.648771 
L 158.621535 164.979268 
L 163.655799 184.241631 
L 164.238976 190.227635 
L 167.329691 205.311688 
L 167.530972 225.763593 
L 167.861561 228.439219 
" style="fill:#2a768e;"/>
   </g>
   <g id="PathCollection_16">
    <path clip-path="url(#p40a5f22621)" d="M 218.497056 228.439219 
L 217.706097 224.442436 
L 217.21832 207.538822 
L 212.083955 197.873353 
L 209.037266 185.021625 
L 199.565025 170.032029 
L 197.872632 164.596927 
L 193.156639 155.791645 
L 186.789935 143.611891 
L 182.787382 138.885249 
L 173.185853 119.719219 
L 166.543362 118.555982 
L 164.941096 118.126375 
L 142.741469 112.436223 
L 132.237536 108.291871 
L 120.683983 104.116721 
L 107.040807 96.274198 
L 100.839913 91.479934 
L 87.192128 74.443129 
L 85.964043 72.274805 
L 79.747115 54.078292 
L 76.025287 35.55175 
L 75.613688 33.416874 
L 75.289867 30.150059 
L 75.174289 10.999219 
L 71.826226 10.999219 
L 71.951959 31.83274 
L 72.072655 33.791022 
L 72.13587 35.082391 
L 73.399157 42.697183 
L 75.895785 55.124918 
L 79.704173 66.271803 
L 82.617076 74.700533 
L 83.526677 76.792494 
L 94.586566 90.364661 
L 98.703076 95.503383 
L 99.737447 96.303113 
L 118.846592 107.287646 
L 135.028934 113.135518 
L 141.080622 115.523227 
L 157.450915 119.719219 
L 160.331448 128.151213 
L 168.159631 143.465572 
L 171.021578 152.706705 
L 176.672752 167.073562 
L 177.782638 171.895789 
L 182.378085 184.500749 
L 184.286911 197.762042 
L 186.779266 205.423725 
L 186.907835 217.803178 
L 188.22198 228.439219 
L 193.183125 228.439219 
" style="fill:#287d8e;"/>
   </g>
   <g id="PathCollection_17">
    <path clip-path="url(#p40a5f22621)" d="M 247.543125 163.43476 
L 230.575356 156.100018 
L 226.397023 155.039779 
L 211.64642 141.172679 
L 209.334898 139.676749 
L 198.646191 127.573246 
L 192.719368 120.574221 
L 192.291041 119.719219 
L 167.980329 115.461913 
L 162.116226 113.889604 
L 144.402316 109.349219 
L 129.446139 103.448223 
L 122.521373 100.945795 
L 114.344167 96.245282 
L 102.97675 87.456485 
L 92.362558 74.206575 
L 88.507418 67.399886 
L 83.598445 53.031667 
L 80.659638 38.402851 
L 79.504814 32.413034 
L 78.596272 23.24734 
L 78.522352 10.999219 
L 75.174289 10.999219 
L 75.289867 30.150059 
L 75.613688 33.416874 
L 76.025287 35.55175 
L 79.747115 54.078292 
L 85.964043 72.274805 
L 87.192128 74.443129 
L 100.839913 91.479934 
L 107.040807 96.274198 
L 120.683983 104.116721 
L 132.237536 108.291871 
L 142.741469 112.436223 
L 164.941096 118.126375 
L 166.543362 118.555982 
L 173.185853 119.719219 
L 182.787382 138.885249 
L 186.789935 143.611891 
L 193.156639 155.791645 
L 197.872632 164.596927 
L 199.565025 170.032029 
L 209.037266 185.021625 
L 212.083955 197.873353 
L 217.21832 207.538822 
L 217.706097 224.442436 
L 218.497056 228.439219 
L 220.363125 228.439219 
L 247.543125 228.439219 
L 247.543125 201.259219 
L 247.543125 174.079219 
" style="fill:#25838e;"/>
   </g>
   <g id="PathCollection_18">
    <path clip-path="url(#p40a5f22621)" d="M 247.543125 125.989561 
L 242.626852 124.635492 
L 228.989429 119.719219 
L 220.468737 119.430683 
L 220.158954 119.401181 
L 194.559678 116.770872 
L 190.409934 116.044087 
L 169.417295 112.367844 
L 159.291357 109.652832 
L 146.063164 106.262215 
L 126.654741 98.604575 
L 124.358764 97.77487 
L 121.647528 96.216367 
L 105.113587 83.433037 
L 97.532988 73.970022 
L 91.050793 62.524968 
L 87.449774 51.985041 
L 85.293989 41.253952 
L 83.395941 31.409194 
L 81.902676 16.344621 
L 81.870416 10.999219 
L 78.522352 10.999219 
L 78.596272 23.24734 
L 79.504814 32.413034 
L 80.659638 38.402851 
L 83.598445 53.031667 
L 88.507418 67.399886 
L 92.362558 74.206575 
L 102.97675 87.456485 
L 114.344167 96.245282 
L 122.521373 100.945795 
L 129.446139 103.448223 
L 144.402316 109.349219 
L 162.116226 113.889604 
L 167.980329 115.461913 
L 192.291041 119.719219 
L 192.719368 120.574221 
L 198.646191 127.573246 
L 209.334898 139.676749 
L 211.64642 141.172679 
L 226.397023 155.039779 
L 230.575356 156.100018 
L 247.543125 163.43476 
L 247.543125 146.899219 
" style="fill:#238a8d;"/>
   </g>
   <g id="PathCollection_19">
    <path clip-path="url(#p40a5f22621)" d="M 247.543125 117.064475 
L 244.894571 117.070665 
L 221.621032 116.282553 
L 217.931309 115.931166 
L 196.003655 113.678114 
L 187.500912 112.188946 
L 170.854261 109.273775 
L 156.466487 105.416061 
L 147.724011 103.175211 
L 130.54856 96.398596 
L 126.364294 94.262547 
L 121.541797 90.459061 
L 107.250424 79.409588 
L 102.703418 73.733468 
L 93.594167 57.650049 
L 91.301104 50.938416 
L 89.928339 44.105054 
L 87.287067 30.405354 
L 85.487719 12.25291 
L 85.459577 10.999219 
L 84.463125 10.999219 
L 81.870416 10.999219 
L 81.902676 16.344621 
L 83.395941 31.409194 
L 85.293989 41.253952 
L 87.449774 51.985041 
L 91.050793 62.524968 
L 97.532988 73.970022 
L 105.113587 83.433037 
L 121.647528 96.216367 
L 124.358764 97.77487 
L 126.654741 98.604575 
L 146.063164 106.262215 
L 159.291357 109.652832 
L 169.417295 112.367844 
L 190.409934 116.044087 
L 194.559678 116.770872 
L 220.158954 119.401181 
L 220.468737 119.430683 
L 228.989429 119.719219 
L 242.626852 124.635492 
L 247.543125 125.989561 
L 247.543125 119.719219 
" style="fill:#21918c;"/>
   </g>
   <g id="PathCollection_20">
    <path clip-path="url(#p40a5f22621)" d="M 247.543125 113.757906 
L 241.595713 113.771806 
L 222.773327 113.134424 
L 215.703664 112.461151 
L 197.447631 110.585356 
L 184.59189 108.333805 
L 172.291227 106.179705 
L 153.641618 101.17929 
L 149.384858 100.088208 
L 141.022037 96.788636 
L 128.535307 90.414218 
L 114.143963 79.063816 
L 109.387261 75.386139 
L 107.873848 73.496915 
L 96.137542 52.77513 
L 95.152434 49.89179 
L 94.56269 46.956155 
L 91.178193 29.401515 
L 90.029176 17.809824 
L 89.876294 10.999219 
L 85.459577 10.999219 
L 85.487719 12.25291 
L 87.287067 30.405354 
L 89.928339 44.105054 
L 91.301104 50.938416 
L 93.594167 57.650049 
L 102.703418 73.733468 
L 107.250424 79.409588 
L 121.541797 90.459061 
L 126.364294 94.262547 
L 130.54856 96.398596 
L 147.724011 103.175211 
L 156.466487 105.416061 
L 170.854261 109.273775 
L 187.500912 112.188946 
L 196.003655 113.678114 
L 217.931309 115.931166 
L 221.621032 116.282553 
L 244.894571 117.070665 
L 247.543125 117.064475 
" style="fill:#1f968b;"/>
   </g>
   <g id="PathCollection_21">
    <path clip-path="url(#p40a5f22621)" d="M 247.543125 110.451337 
L 238.296854 110.472948 
L 223.925622 109.986295 
L 213.476019 108.991137 
L 198.891608 107.492598 
L 181.682867 104.478663 
L 173.728193 103.085636 
L 151.649954 97.165921 
L 151.062528 96.964146 
L 150.79546 96.821302 
L 130.706321 86.56589 
L 113.821138 73.248606 
L 111.891958 71.146564 
L 99.649415 49.568454 
L 99.126585 48.431829 
L 98.053125 43.874018 
L 95.06932 28.397675 
L 94.570632 23.366738 
L 94.29301 10.999219 
L 89.876294 10.999219 
L 90.029176 17.809824 
L 91.178193 29.401515 
L 94.56269 46.956155 
L 95.152434 49.89179 
L 96.137542 52.77513 
L 107.873848 73.496915 
L 109.387261 75.386139 
L 114.143963 79.063816 
L 128.535307 90.414218 
L 141.022037 96.788636 
L 149.384858 100.088208 
L 153.641618 101.17929 
L 172.291227 106.179705 
L 184.59189 108.333805 
L 197.447631 110.585356 
L 215.703664 112.461151 
L 222.773327 113.134424 
L 241.595713 113.771806 
L 247.543125 113.757906 
" style="fill:#1e9d89;"/>
   </g>
   <g id="PathCollection_22">
    <path clip-path="url(#p40a5f22621)" d="M 247.543125 107.144769 
L 234.997995 107.174089 
L 225.077918 106.838165 
L 211.248374 105.521122 
L 200.335585 104.39984 
L 178.773845 100.623522 
L 175.165159 99.991567 
L 165.149234 97.306053 
L 153.052965 93.151107 
L 147.553494 90.209673 
L 132.877334 82.717561 
L 120.541831 72.988593 
L 114.762877 66.691824 
L 106.116475 51.452096 
L 103.4755 45.710657 
L 99.293269 27.953297 
L 99.05547 26.40144 
L 98.709727 10.999219 
L 94.29301 10.999219 
L 94.570632 23.366738 
L 95.06932 28.397675 
L 98.053125 43.874018 
L 99.126585 48.431829 
L 99.649415 49.568454 
L 111.891958 71.146564 
L 113.821138 73.248606 
L 130.706321 86.56589 
L 150.79546 96.821302 
L 151.062528 96.964146 
L 151.649954 97.165921 
L 173.728193 103.085636 
L 181.682867 104.478663 
L 198.891608 107.492598 
L 213.476019 108.991137 
L 223.925622 109.986295 
L 238.296854 110.472948 
L 247.543125 110.451337 
" style="fill:#20a386;"/>
   </g>
   <g id="PathCollection_23">
    <path clip-path="url(#p40a5f22621)" d="M 247.543125 103.8382 
L 231.699136 103.87523 
L 226.230213 103.690036 
L 209.02073 102.051107 
L 201.779562 101.307082 
L 178.597472 97.246977 
L 176.520626 96.713757 
L 175.517139 96.370589 
L 155.043402 89.338068 
L 144.311529 83.598043 
L 135.048348 78.869232 
L 127.262524 72.72858 
L 117.633797 62.237085 
L 112.583534 53.335738 
L 107.824414 42.989484 
L 104.611737 29.348758 
L 103.354117 21.141628 
L 103.126444 10.999219 
L 98.709727 10.999219 
L 99.05547 26.40144 
L 99.293269 27.953297 
L 103.4755 45.710657 
L 106.116475 51.452096 
L 114.762877 66.691824 
L 120.541831 72.988593 
L 132.877334 82.717561 
L 147.553494 90.209673 
L 153.052965 93.151107 
L 165.149234 97.306053 
L 175.165159 99.991567 
L 178.773845 100.623522 
L 200.335585 104.39984 
L 211.248374 105.521122 
L 225.077918 106.838165 
L 234.997995 107.174089 
L 247.543125 107.144769 
" style="fill:#24aa83;"/>
   </g>
   <g id="PathCollection_24">
    <path clip-path="url(#p40a5f22621)" d="M 247.543125 100.531631 
L 228.400278 100.576371 
L 227.382508 100.541907 
L 206.793085 98.581093 
L 203.223539 98.214324 
L 191.795888 96.212888 
L 177.477195 92.536636 
L 170.558714 90.170686 
L 157.033839 85.525028 
L 141.069564 76.986413 
L 137.219362 75.020903 
L 133.983217 72.468567 
L 120.504716 57.782345 
L 119.050594 55.219381 
L 112.173329 40.268312 
L 109.930206 30.744219 
L 107.652763 15.881815 
L 107.54316 10.999219 
L 103.126444 10.999219 
L 103.354117 21.141628 
L 104.611737 29.348758 
L 107.824414 42.989484 
L 112.583534 53.335738 
L 117.633797 62.237085 
L 127.262524 72.72858 
L 135.048348 78.869232 
L 144.311529 83.598043 
L 155.043402 89.338068 
L 175.517139 96.370589 
L 176.520626 96.713757 
L 178.597472 97.246977 
L 201.779562 101.307082 
L 209.02073 102.051107 
L 226.230213 103.690036 
L 231.699136 103.87523 
L 247.543125 103.8382 
" style="fill:#2ab07f;"/>
   </g>
   <g id="PathCollection_25">
    <path clip-path="url(#p40a5f22621)" d="M 247.543125 97.225063 
L 234.658892 97.255175 
L 227.181941 96.667495 
L 204.753695 95.103823 
L 204.62575 95.075213 
L 204.44043 95.036595 
L 178.433765 88.359516 
L 165.60029 83.970784 
L 159.024276 81.711989 
L 143.940098 73.644101 
L 140.139333 71.345668 
L 138.769922 70.035786 
L 125.050526 55.031198 
L 121.843181 49.114776 
L 116.522244 37.547139 
L 115.248674 32.139679 
L 112.191462 12.188568 
L 112.06646 10.999219 
L 111.643125 10.999219 
L 107.54316 10.999219 
L 107.652763 15.881815 
L 109.930206 30.744219 
L 112.173329 40.268312 
L 119.050594 55.219381 
L 120.504716 57.782345 
L 133.983217 72.468567 
L 137.219362 75.020903 
L 141.069564 76.986413 
L 157.033839 85.525028 
L 170.558714 90.170686 
L 177.477195 92.536636 
L 191.795888 96.212888 
L 203.223539 98.214324 
L 206.793085 98.581093 
L 227.382508 100.541907 
L 228.400278 100.576371 
L 247.543125 100.531631 
" style="fill:#34b679;"/>
   </g>
   <g id="PathCollection_26">
    <path clip-path="url(#p40a5f22621)" d="M 247.543125 93.918494 
L 243.75066 93.927357 
L 226.580339 92.577789 
L 209.297534 91.372851 
L 204.567433 90.31514 
L 197.716221 88.887474 
L 179.390335 84.182395 
L 161.364608 78.018041 
L 160.922729 77.783568 
L 144.904506 68.096885 
L 138.791874 62.249974 
L 130.733346 53.436546 
L 122.141331 37.587302 
L 120.871159 34.825967 
L 120.567142 33.53514 
L 119.837348 28.772567 
L 117.969339 10.999219 
L 112.06646 10.999219 
L 112.191462 12.188568 
L 115.248674 32.139679 
L 116.522244 37.547139 
L 121.843181 49.114776 
L 125.050526 55.031198 
L 138.769922 70.035786 
L 140.139333 71.345668 
L 143.940098 73.644101 
L 159.024276 81.711989 
L 165.60029 83.970784 
L 178.433765 88.359516 
L 204.44043 95.036595 
L 204.62575 95.075213 
L 204.753695 95.103823 
L 227.181941 96.667495 
L 234.658892 97.255175 
L 247.543125 97.225063 
" style="fill:#3fbc73;"/>
   </g>
   <g id="PathCollection_27">
    <path clip-path="url(#p40a5f22621)" d="M 247.543125 89.804071 
L 242.989223 89.825088 
L 225.978738 88.488083 
L 213.841372 87.641879 
L 204.509116 85.555067 
L 190.992012 82.738352 
L 180.346904 80.005274 
L 169.876153 76.424536 
L 161.198847 71.820123 
L 149.66968 64.848101 
L 138.813827 54.464161 
L 136.416165 51.841893 
L 132.493336 44.605654 
L 126.967806 33.838618 
L 125.77192 29.074103 
L 123.872219 10.999219 
L 117.969339 10.999219 
L 119.837348 28.772567 
L 120.567142 33.53514 
L 120.871159 34.825967 
L 122.141331 37.587302 
L 130.733346 53.436546 
L 138.791874 62.249974 
L 144.904506 68.096885 
L 160.922729 77.783568 
L 161.364608 78.018041 
L 179.390335 84.182395 
L 197.716221 88.887474 
L 204.567433 90.31514 
L 209.297534 91.372851 
L 226.580339 92.577789 
L 243.75066 93.927357 
L 247.543125 93.918494 
L 247.543125 92.539219 
" style="fill:#4cc26c;"/>
   </g>
   <g id="PathCollection_28">
    <path clip-path="url(#p40a5f22621)" d="M 247.543125 85.111505 
L 235.176303 85.168581 
L 225.377137 84.398377 
L 218.38521 83.910907 
L 204.450799 80.794994 
L 184.267803 76.58923 
L 181.303474 75.828154 
L 178.387698 74.83103 
L 161.474965 65.856677 
L 154.434854 61.599318 
L 145.027751 52.60115 
L 141.16579 47.873838 
L 133.862816 33.64328 
L 130.924764 21.937822 
L 129.775098 10.999219 
L 123.872219 10.999219 
L 125.77192 29.074103 
L 126.967806 33.838618 
L 132.493336 44.605654 
L 136.416165 51.841893 
L 138.813827 54.464161 
L 149.66968 64.848101 
L 161.198847 71.820123 
L 169.876153 76.424536 
L 180.346904 80.005274 
L 190.992012 82.738352 
L 204.509116 85.555067 
L 213.841372 87.641879 
L 225.978738 88.488083 
L 242.989223 89.825088 
L 247.543125 89.804071 
" style="fill:#5ac864;"/>
   </g>
   <g id="PathCollection_29">
    <path clip-path="url(#p40a5f22621)" d="M 247.543125 80.418938 
L 227.363383 80.512073 
L 224.775536 80.308671 
L 222.929048 80.179936 
L 204.392481 76.034921 
L 186.354632 72.276166 
L 182.360275 70.522204 
L 171.407721 65.017305 
L 161.751083 59.893231 
L 159.200027 58.350534 
L 155.791268 55.089957 
L 145.229743 42.161909 
L 140.757826 33.447941 
L 136.077608 14.801542 
L 135.677978 10.999219 
L 129.775098 10.999219 
L 130.924764 21.937822 
L 133.862816 33.64328 
L 141.16579 47.873838 
L 145.027751 52.60115 
L 154.434854 61.599318 
L 161.474965 65.856677 
L 178.387698 74.83103 
L 181.303474 75.828154 
L 184.267803 76.58923 
L 204.450799 80.794994 
L 218.38521 83.910907 
L 225.377137 84.398377 
L 235.176303 85.168581 
L 247.543125 85.111505 
" style="fill:#69cd5b;"/>
   </g>
   <g id="PathCollection_30">
    <path clip-path="url(#p40a5f22621)" d="M 247.543125 75.726372 
L 229.729301 75.808587 
L 224.555172 75.047126 
L 218.014481 74.333943 
L 204.334164 71.274848 
L 193.979273 69.11708 
L 183.480072 64.506776 
L 166.323765 55.883787 
L 163.812938 53.796839 
L 157.528605 46.530086 
L 149.293697 36.44998 
L 147.652836 33.252602 
L 144.547466 20.880533 
L 142.661332 10.999219 
L 138.823125 10.999219 
L 135.677978 10.999219 
L 136.077608 14.801542 
L 140.757826 33.447941 
L 145.229743 42.161909 
L 155.791268 55.089957 
L 159.200027 58.350534 
L 161.751083 59.893231 
L 171.407721 65.017305 
L 182.360275 70.522204 
L 186.354632 72.276166 
L 204.392481 76.034921 
L 222.929048 80.179936 
L 224.775536 80.308671 
L 227.363383 80.512073 
L 247.543125 80.418938 
" style="fill:#7ad151;"/>
   </g>
   <g id="PathCollection_31">
    <path clip-path="url(#p40a5f22621)" d="M 247.543125 71.033805 
L 237.792513 71.078807 
L 224.548195 69.129682 
L 207.805859 67.304131 
L 204.275847 66.514775 
L 201.603914 65.957994 
L 184.59987 58.491347 
L 176.55216 54.446461 
L 168.22542 47.525446 
L 155.850844 33.216369 
L 154.31744 29.023687 
L 150.876951 10.999219 
L 142.661332 10.999219 
L 144.547466 20.880533 
L 147.652836 33.252602 
L 149.293697 36.44998 
L 157.528605 46.530086 
L 163.812938 53.796839 
L 166.323765 55.883787 
L 183.480072 64.506776 
L 193.979273 69.11708 
L 204.334164 71.274848 
L 218.014481 74.333943 
L 224.555172 75.047126 
L 229.729301 75.808587 
L 247.543125 75.726372 
" style="fill:#8bd646;"/>
   </g>
   <g id="PathCollection_32">
    <path clip-path="url(#p40a5f22621)" d="M 247.543125 66.341239 
L 245.855725 66.349027 
L 224.541218 63.212237 
L 209.407295 61.562065 
L 204.377881 59.517691 
L 186.337649 52.505088 
L 184.926976 51.468478 
L 172.637902 41.254052 
L 165.845228 33.399488 
L 160.664394 19.233891 
L 159.09257 10.999219 
L 150.876951 10.999219 
L 154.31744 29.023687 
L 155.850844 33.216369 
L 168.22542 47.525446 
L 176.55216 54.446461 
L 184.59987 58.491347 
L 201.603914 65.957994 
L 204.275847 66.514775 
L 207.805859 67.304131 
L 224.548195 69.129682 
L 237.792513 71.078807 
L 247.543125 71.033805 
" style="fill:#9bd93c;"/>
   </g>
   <g id="PathCollection_33">
    <path clip-path="url(#p40a5f22621)" d="M 247.543125 59.14598 
L 236.869591 59.110147 
L 224.53424 57.294792 
L 217.305983 56.506637 
L 204.565416 51.327809 
L 192.763326 46.740097 
L 179.240873 36.803348 
L 177.050384 34.982658 
L 175.839611 33.582607 
L 171.077914 20.563026 
L 167.912275 10.999219 
L 166.003125 10.999219 
L 159.09257 10.999219 
L 160.664394 19.233891 
L 165.845228 33.399488 
L 172.637902 41.254052 
L 184.926976 51.468478 
L 186.337649 52.505088 
L 204.377881 59.517691 
L 209.407295 61.562065 
L 224.541218 63.212237 
L 245.855725 66.349027 
L 247.543125 66.341239 
L 247.543125 65.359219 
" style="fill:#addc30;"/>
   </g>
   <g id="PathCollection_34">
    <path clip-path="url(#p40a5f22621)" d="M 247.543125 51.288366 
L 225.652186 51.214875 
L 224.660955 50.988538 
L 222.809276 50.477522 
L 204.752951 43.137926 
L 199.189003 40.975107 
L 190.589528 34.655926 
L 184.309399 24.227751 
L 179.930728 10.999219 
L 167.912275 10.999219 
L 171.077914 20.563026 
L 175.839611 33.582607 
L 177.050384 34.982658 
L 179.240873 36.803348 
L 192.763326 46.740097 
L 204.565416 51.327809 
L 217.305983 56.506637 
L 224.53424 57.294792 
L 236.869591 59.110147 
L 247.543125 59.14598 
" style="fill:#c0df25;"/>
   </g>
   <g id="PathCollection_35">
    <path clip-path="url(#p40a5f22621)" d="M 247.543125 43.430753 
L 238.773599 43.401312 
L 226.214224 40.533514 
L 207.305145 35.315087 
L 206.040206 34.032106 
L 198.901151 23.097718 
L 192.356883 12.230941 
L 191.949181 10.999219 
L 179.930728 10.999219 
L 184.309399 24.227751 
L 190.589528 34.655926 
L 199.189003 40.975107 
L 204.752951 43.137926 
L 222.809276 50.477522 
L 224.660955 50.988538 
L 225.652186 51.214875 
L 247.543125 51.288366 
" style="fill:#d2e21b;"/>
   </g>
   <g id="PathCollection_36">
    <path clip-path="url(#p40a5f22621)" d="M 247.543125 30.84953 
L 229.240045 29.302298 
L 226.408416 27.515261 
L 216.40316 17.367294 
L 212.245448 10.999219 
L 193.183125 10.999219 
L 191.949181 10.999219 
L 192.356883 12.230941 
L 198.901151 23.097718 
L 206.040206 34.032106 
L 207.305145 35.315087 
L 226.214224 40.533514 
L 238.773599 43.401312 
L 247.543125 43.430753 
L 247.543125 38.179219 
" style="fill:#e5e419;"/>
   </g>
   <g id="PathCollection_37">
    <path clip-path="url(#p40a5f22621)" d="M 212.245448 10.999219 
L 216.40316 17.367294 
L 226.408416 27.515261 
L 229.240045 29.302298 
L 247.543125 30.84953 
L 247.543125 10.999219 
L 220.363125 10.999219 
" style="fill:#f6e620;"/>
   </g>
   <g id="line2d_1">
    <path clip-path="url(#p40a5f22621)" d="M 247.543125 38.179219 
L 247.543125 10.999219 
M 227.645984 30.89636 
L 247.543125 10.999219 
M 227.645984 30.89636 
L 247.543125 38.179219 
M 220.363125 10.999219 
L 247.543125 10.999219 
M 220.363125 10.999219 
L 227.645984 30.89636 
M 247.543125 65.359219 
L 247.543125 38.179219 
M 224.527861 51.88439 
L 247.543125 38.179219 
M 224.527861 51.88439 
L 227.645984 30.89636 
M 224.527861 51.88439 
L 247.543125 65.359219 
M 204.920218 35.833175 
L 227.645984 30.89636 
M 204.920218 35.833175 
L 220.363125 10.999219 
M 204.920218 35.833175 
L 224.527861 51.88439 
M 193.183125 10.999219 
L 220.363125 10.999219 
M 193.183125 10.999219 
L 204.920218 35.833175 
M 247.543125 92.539219 
L 247.543125 65.359219 
M 224.559646 78.841042 
L 247.543125 65.359219 
M 224.559646 78.841042 
L 224.527861 51.88439 
M 224.559646 78.841042 
L 247.543125 92.539219 
M 204.255566 64.859346 
L 224.527861 51.88439 
M 204.255566 64.859346 
L 204.920218 35.833175 
M 204.255566 64.859346 
L 224.559646 78.841042 
M 185.589243 53.176543 
L 204.920218 35.833175 
M 185.589243 53.176543 
L 204.255566 64.859346 
M 178.007498 33.622327 
L 204.920218 35.833175 
M 178.007498 33.622327 
L 193.183125 10.999219 
M 178.007498 33.622327 
L 185.589243 53.176543 
M 166.003125 10.999219 
L 193.183125 10.999219 
M 166.003125 10.999219 
L 178.007498 33.622327 
M 247.543125 119.719219 
L 247.543125 92.539219 
M 227.645984 99.822078 
L 247.543125 92.539219 
M 227.645984 99.822078 
L 224.559646 78.841042 
M 227.645984 99.822078 
L 247.543125 119.719219 
M 204.627371 95.207549 
L 224.559646 78.841042 
M 204.627371 95.207549 
L 204.255566 64.859346 
M 204.627371 95.207549 
L 227.645984 99.822078 
M 181.672654 74.216031 
L 204.255566 64.859346 
M 181.672654 74.216031 
L 185.589243 53.176543 
M 181.672654 74.216031 
L 204.627371 95.207549 
M 161.907996 56.504304 
L 185.589243 53.176543 
M 161.907996 56.504304 
L 178.007498 33.622327 
M 161.907996 56.504304 
L 181.672654 74.216031 
M 151.649136 33.139385 
L 178.007498 33.622327 
M 151.649136 33.139385 
L 166.003125 10.999219 
M 151.649136 33.139385 
L 161.907996 56.504304 
M 138.823125 10.999219 
L 166.003125 10.999219 
M 138.823125 10.999219 
L 151.649136 33.139385 
M 247.543125 146.899219 
L 247.543125 119.719219 
M 227.645984 139.61636 
L 247.543125 119.719219 
M 227.645984 139.61636 
L 247.543125 146.899219 
M 220.363125 119.719219 
L 247.543125 119.719219 
M 220.363125 119.719219 
L 227.645984 99.822078 
M 220.363125 119.719219 
L 204.627371 95.207549 
M 220.363125 119.719219 
L 227.645984 139.61636 
M 193.183125 119.719219 
L 204.627371 95.207549 
M 193.183125 119.719219 
L 220.363125 119.719219 
M 176.358342 97.422411 
L 204.627371 95.207549 
M 176.358342 97.422411 
L 181.672654 74.216031 
M 176.358342 97.422411 
L 193.183125 119.719219 
M 160.907914 78.103542 
L 181.672654 74.216031 
M 160.907914 78.103542 
L 161.907996 56.504304 
M 160.907914 78.103542 
L 176.358342 97.422411 
M 138.763584 72.283622 
L 161.907996 56.504304 
M 138.763584 72.283622 
L 160.907914 78.103542 
M 138.823125 51.166478 
L 161.907996 56.504304 
M 138.823125 51.166478 
L 151.649136 33.139385 
M 138.823125 51.166478 
L 138.763584 72.283622 
M 122.23482 33.972706 
L 151.649136 33.139385 
M 122.23482 33.972706 
L 138.823125 10.999219 
M 122.23482 33.972706 
L 138.823125 51.166478 
M 111.643125 10.999219 
L 138.823125 10.999219 
M 111.643125 10.999219 
L 122.23482 33.972706 
M 247.543125 174.079219 
L 247.543125 146.899219 
M 226.115325 158.518476 
L 247.543125 146.899219 
M 226.115325 158.518476 
L 227.645984 139.61636 
M 226.115325 158.518476 
L 247.543125 174.079219 
M 208.330007 141.495276 
L 227.645984 139.61636 
M 208.330007 141.495276 
L 220.363125 119.719219 
M 208.330007 141.495276 
L 193.183125 119.719219 
M 208.330007 141.495276 
L 226.115325 158.518476 
M 179.85395 144.293449 
L 193.183125 119.719219 
M 179.85395 144.293449 
L 208.330007 141.495276 
M 166.003125 119.719219 
L 193.183125 119.719219 
M 166.003125 119.719219 
L 176.358342 97.422411 
M 166.003125 119.719219 
L 179.85395 144.293449 
M 150.960934 97.158768 
L 176.358342 97.422411 
M 150.960934 97.158768 
L 160.907914 78.103542 
M 150.960934 97.158768 
L 138.763584 72.283622 
M 150.960934 97.158768 
L 166.003125 119.719219 
M 125.270149 96.202024 
L 138.763584 72.283622 
M 125.270149 96.202024 
L 150.960934 97.158768 
M 110.453297 73.378902 
L 138.763584 72.283622 
M 110.453297 73.378902 
L 125.270149 96.202024 
M 98.053125 49.103507 
L 122.23482 33.972706 
M 98.053125 49.103507 
L 110.453297 73.378902 
M 98.053125 27.627907 
L 122.23482 33.972706 
M 98.053125 27.627907 
L 111.643125 10.999219 
M 98.053125 27.627907 
L 98.053125 49.103507 
M 84.463125 10.999219 
L 111.643125 10.999219 
M 84.463125 10.999219 
L 98.053125 27.627907 
M 121.66559 55.981043 
L 138.763584 72.283622 
M 121.66559 55.981043 
L 138.823125 51.166478 
M 121.66559 55.981043 
L 122.23482 33.972706 
M 121.66559 55.981043 
L 110.453297 73.378902 
M 121.66559 55.981043 
L 98.053125 49.103507 
M 247.543125 201.259219 
L 247.543125 174.079219 
M 221.469927 185.219453 
L 247.543125 174.079219 
M 221.469927 185.219453 
L 226.115325 158.518476 
M 221.469927 185.219453 
L 247.543125 201.259219 
M 202.339931 163.729236 
L 226.115325 158.518476 
M 202.339931 163.729236 
L 208.330007 141.495276 
M 202.339931 163.729236 
L 179.85395 144.293449 
M 202.339931 163.729236 
L 221.469927 185.219453 
M 180.825315 167.908057 
L 179.85395 144.293449 
M 180.825315 167.908057 
L 202.339931 163.729236 
M 159.551162 163.632823 
L 179.85395 144.293449 
M 159.551162 163.632823 
L 180.825315 167.908057 
M 150.854472 142.240487 
L 179.85395 144.293449 
M 150.854472 142.240487 
L 166.003125 119.719219 
M 150.854472 142.240487 
L 159.551162 163.632823 
M 138.823125 119.719219 
L 166.003125 119.719219 
M 138.823125 119.719219 
L 150.960934 97.158768 
M 138.823125 119.719219 
L 125.270149 96.202024 
M 138.823125 119.719219 
L 150.854472 142.240487 
M 111.643125 119.719219 
L 125.270149 96.202024 
M 111.643125 119.719219 
L 138.823125 119.719219 
M 98.275268 96.308902 
L 125.270149 96.202024 
M 98.275268 96.308902 
L 110.453297 73.378902 
M 98.275268 96.308902 
L 111.643125 119.719219 
M 84.775077 74.553712 
L 110.453297 73.378902 
M 84.775077 74.553712 
L 98.053125 49.103507 
M 84.775077 74.553712 
L 98.275268 96.308902 
M 73.309433 55.827776 
L 98.053125 49.103507 
M 73.309433 55.827776 
L 84.775077 74.553712 
M 73.458772 33.972803 
L 98.053125 49.103507 
M 73.458772 33.972803 
L 98.053125 27.627907 
M 73.458772 33.972803 
L 84.463125 10.999219 
M 73.458772 33.972803 
L 73.309433 55.827776 
M 57.283125 10.999219 
L 84.463125 10.999219 
M 57.283125 10.999219 
L 73.458772 33.972803 
M 247.543125 228.439219 
L 247.543125 201.259219 
M 227.645984 208.542078 
L 247.543125 201.259219 
M 227.645984 208.542078 
L 221.469927 185.219453 
M 227.645984 208.542078 
L 247.543125 228.439219 
M 205.734192 206.433924 
L 221.469927 185.219453 
M 205.734192 206.433924 
L 227.645984 208.542078 
M 193.07742 184.767673 
L 221.469927 185.219453 
M 193.07742 184.767673 
L 202.339931 163.729236 
M 193.07742 184.767673 
L 180.825315 167.908057 
M 193.07742 184.767673 
L 205.734192 206.433924 
M 168.430434 184.152786 
L 180.825315 167.908057 
M 168.430434 184.152786 
L 159.551162 163.632823 
M 168.430434 184.152786 
L 193.07742 184.767673 
M 145.083609 184.587214 
L 159.551162 163.632823 
M 145.083609 184.587214 
L 168.430434 184.152786 
M 136.571495 163.949577 
L 159.551162 163.632823 
M 136.571495 163.949577 
L 150.854472 142.240487 
M 136.571495 163.949577 
L 145.083609 184.587214 
M 125.270149 143.236414 
L 150.854472 142.240487 
M 125.270149 143.236414 
L 138.823125 119.719219 
M 125.270149 143.236414 
L 111.643125 119.719219 
M 125.270149 143.236414 
L 136.571495 163.949577 
M 98.275268 143.129535 
L 111.643125 119.719219 
M 98.275268 143.129535 
L 125.270149 143.236414 
M 84.463125 119.719219 
L 111.643125 119.719219 
M 84.463125 119.719219 
L 98.275268 96.308902 
M 84.463125 119.719219 
L 98.275268 143.129535 
M 71.828864 97.77043 
L 98.275268 96.308902 
M 71.828864 97.77043 
L 84.775077 74.553712 
M 71.828864 97.77043 
L 84.463125 119.719219 
M 56.176323 76.499453 
L 84.775077 74.553712 
M 56.176323 76.499453 
L 73.309433 55.827776 
M 56.176323 76.499453 
L 71.828864 97.77043 
M 52.540118 51.518396 
L 73.309433 55.827776 
M 52.540118 51.518396 
L 73.458772 33.972803 
M 52.540118 51.518396 
L 56.176323 76.499453 
M 50.000266 30.89636 
L 73.458772 33.972803 
M 50.000266 30.89636 
L 57.283125 10.999219 
M 50.000266 30.89636 
L 52.540118 51.518396 
M 30.103125 10.999219 
L 57.283125 10.999219 
M 30.103125 10.999219 
L 50.000266 30.89636 
M 220.363125 228.439219 
L 247.543125 228.439219 
M 220.363125 228.439219 
L 227.645984 208.542078 
M 220.363125 228.439219 
L 205.734192 206.433924 
M 193.183125 228.439219 
L 205.734192 206.433924 
M 193.183125 228.439219 
L 220.363125 228.439219 
M 179.370982 205.028902 
L 205.734192 206.433924 
M 179.370982 205.028902 
L 193.07742 184.767673 
M 179.370982 205.028902 
L 168.430434 184.152786 
M 179.370982 205.028902 
L 193.183125 228.439219 
M 153.609124 205.63391 
L 168.430434 184.152786 
M 153.609124 205.63391 
L 145.083609 184.587214 
M 153.609124 205.63391 
L 179.370982 205.028902 
M 125.233125 204.900648 
L 145.083609 184.587214 
M 125.233125 204.900648 
L 153.609124 205.63391 
M 124.375952 182.74271 
L 145.083609 184.587214 
M 124.375952 182.74271 
L 136.571495 163.949577 
M 124.375952 182.74271 
L 125.233125 204.900648 
M 111.686319 165.619774 
L 136.571495 163.949577 
M 111.686319 165.619774 
L 125.270149 143.236414 
M 111.686319 165.619774 
L 98.275268 143.129535 
M 111.686319 165.619774 
L 124.375952 182.74271 
M 84.782919 164.638904 
L 98.275268 143.129535 
M 84.782919 164.638904 
L 111.686319 165.619774 
M 71.627708 141.456377 
L 98.275268 143.129535 
M 71.627708 141.456377 
L 84.463125 119.719219 
M 71.627708 141.456377 
L 84.782919 164.638904 
M 57.283125 119.719219 
L 84.463125 119.719219 
M 57.283125 119.719219 
L 71.828864 97.77043 
M 57.283125 119.719219 
L 71.627708 141.456377 
M 50.000266 99.822078 
L 71.828864 97.77043 
M 50.000266 99.822078 
L 56.176323 76.499453 
M 50.000266 99.822078 
L 57.283125 119.719219 
M 30.103125 92.539219 
L 56.176323 76.499453 
M 30.103125 92.539219 
L 50.000266 99.822078 
M 30.103125 65.359219 
L 56.176323 76.499453 
M 30.103125 65.359219 
L 52.540118 51.518396 
M 30.103125 65.359219 
L 30.103125 92.539219 
M 30.103125 38.179219 
L 52.540118 51.518396 
M 30.103125 38.179219 
L 50.000266 30.89636 
M 30.103125 38.179219 
L 30.103125 10.999219 
M 30.103125 38.179219 
L 30.103125 65.359219 
M 166.003125 228.439219 
L 193.183125 228.439219 
M 166.003125 228.439219 
L 179.370982 205.028902 
M 166.003125 228.439219 
L 153.609124 205.63391 
M 138.823125 228.439219 
L 153.609124 205.63391 
M 138.823125 228.439219 
L 125.233125 204.900648 
M 138.823125 228.439219 
L 166.003125 228.439219 
M 111.643125 228.439219 
L 125.233125 204.900648 
M 111.643125 228.439219 
L 138.823125 228.439219 
M 98.053125 211.81053 
L 125.233125 204.900648 
M 98.053125 211.81053 
L 111.643125 228.439219 
M 98.053125 190.33493 
L 125.233125 204.900648 
M 98.053125 190.33493 
L 124.375952 182.74271 
M 98.053125 190.33493 
L 111.686319 165.619774 
M 98.053125 190.33493 
L 84.782919 164.638904 
M 98.053125 190.33493 
L 98.053125 211.81053 
M 74.24356 184.921103 
L 84.782919 164.638904 
M 74.24356 184.921103 
L 98.053125 190.33493 
M 54.961546 161.915026 
L 84.782919 164.638904 
M 54.961546 161.915026 
L 71.627708 141.456377 
M 54.961546 161.915026 
L 74.24356 184.921103 
M 50.000266 139.61636 
L 71.627708 141.456377 
M 50.000266 139.61636 
L 57.283125 119.719219 
M 50.000266 139.61636 
L 54.961546 161.915026 
M 30.103125 119.719219 
L 57.283125 119.719219 
M 30.103125 119.719219 
L 50.000266 99.822078 
M 30.103125 119.719219 
L 30.103125 92.539219 
M 30.103125 119.719219 
L 50.000266 139.61636 
M 84.463125 228.439219 
L 111.643125 228.439219 
M 84.463125 228.439219 
L 98.053125 211.81053 
M 73.445597 206.138429 
L 98.053125 211.81053 
M 73.445597 206.138429 
L 98.053125 190.33493 
M 73.445597 206.138429 
L 74.24356 184.921103 
M 73.445597 206.138429 
L 84.463125 228.439219 
M 51.569679 189.492935 
L 74.24356 184.921103 
M 51.569679 189.492935 
L 54.961546 161.915026 
M 51.569679 189.492935 
L 73.445597 206.138429 
M 30.103125 174.079219 
L 54.961546 161.915026 
M 30.103125 174.079219 
L 51.569679 189.492935 
M 30.103125 146.899219 
L 54.961546 161.915026 
M 30.103125 146.899219 
L 50.000266 139.61636 
M 30.103125 146.899219 
L 30.103125 119.719219 
M 30.103125 146.899219 
L 30.103125 174.079219 
M 57.283125 228.439219 
L 84.463125 228.439219 
M 57.283125 228.439219 
L 73.445597 206.138429 
M 49.365906 209.436056 
L 73.445597 206.138429 
M 49.365906 209.436056 
L 51.569679 189.492935 
M 49.365906 209.436056 
L 57.283125 228.439219 
M 30.103125 201.259219 
L 51.569679 189.492935 
M 30.103125 201.259219 
L 30.103125 174.079219 
M 30.103125 201.259219 
L 49.365906 209.436056 
M 30.103125 228.439219 
L 57.283125 228.439219 
M 30.103125 228.439219 
L 49.365906 209.436056 
M 30.103125 228.439219 
L 30.103125 201.259219 
L 30.103125 201.259219 
" style="fill:none;stroke:#000000;stroke-linecap:square;stroke-width:0.5;"/>
   </g>
   <g id="matplotlib.axis_1">
    <g id="xtick_1">
     <g id="line2d_2">
      <defs>
       <path d="M 0 0 
L 0 3.5 
" id="mbf074c158f" style="stroke:#000000;stroke-width:0.8;"/>
      </defs>
      <g>
       <use style="stroke:#000000;stroke-width:0.8;" x="30.103125" xlink:href="#mbf074c158f" y="228.439219"/>
      </g>
     </g>
     <g id="text_1">
      <!-- 0.0 -->
      <defs>
       <path d="M 31.78125 66.40625 
Q 24.171875 66.40625 20.328125 58.90625 
Q 16.5 51.421875 16.5 36.375 
Q 16.5 21.390625 20.328125 13.890625 
Q 24.171875 6.390625 31.78125 6.390625 
Q 39.453125 6.390625 43.28125 13.890625 
Q 47.125 21.390625 47.125 36.375 
Q 47.125 51.421875 43.28125 58.90625 
Q 39.453125 66.40625 31.78125 66.40625 
z
M 31.78125 74.21875 
Q 44.046875 74.21875 50.515625 64.515625 
Q 56.984375 54.828125 56.984375 36.375 
Q 56.984375 17.96875 50.515625 8.265625 
Q 44.046875 -1.421875 31.78125 -1.421875 
Q 19.53125 -1.421875 13.0625 8.265625 
Q 6.59375 17.96875 6.59375 36.375 
Q 6.59375 54.828125 13.0625 64.515625 
Q 19.53125 74.21875 31.78125 74.21875 
z
" id="DejaVuSans-48"/>
       <path d="M 10.6875 12.40625 
L 21 12.40625 
L 21 0 
L 10.6875 0 
z
" id="DejaVuSans-46"/>
      </defs>
      <g transform="translate(22.151563 243.037656)scale(0.1 -0.1)">
       <use xlink:href="#DejaVuSans-48"/>
       <use x="63.623047" xlink:href="#DejaVuSans-46"/>
       <use x="95.410156" xlink:href="#DejaVuSans-48"/>
      </g>
     </g>
    </g>
    <g id="xtick_2">
     <g id="line2d_3">
      <g>
       <use style="stroke:#000000;stroke-width:0.8;" x="73.591125" xlink:href="#mbf074c158f" y="228.439219"/>
      </g>
     </g>
     <g id="text_2">
      <!-- 0.2 -->
      <defs>
       <path d="M 19.1875 8.296875 
L 53.609375 8.296875 
L 53.609375 0 
L 7.328125 0 
L 7.328125 8.296875 
Q 12.9375 14.109375 22.625 23.890625 
Q 32.328125 33.6875 34.8125 36.53125 
Q 39.546875 41.84375 41.421875 45.53125 
Q 43.3125 49.21875 43.3125 52.78125 
Q 43.3125 58.59375 39.234375 62.25 
Q 35.15625 65.921875 28.609375 65.921875 
Q 23.96875 65.921875 18.8125 64.3125 
Q 13.671875 62.703125 7.8125 59.421875 
L 7.8125 69.390625 
Q 13.765625 71.78125 18.9375 73 
Q 24.125 74.21875 28.421875 74.21875 
Q 39.75 74.21875 46.484375 68.546875 
Q 53.21875 62.890625 53.21875 53.421875 
Q 53.21875 48.921875 51.53125 44.890625 
Q 49.859375 40.875 45.40625 35.40625 
Q 44.1875 33.984375 37.640625 27.21875 
Q 31.109375 20.453125 19.1875 8.296875 
z
" id="DejaVuSans-50"/>
      </defs>
      <g transform="translate(65.639563 243.037656)scale(0.1 -0.1)">
       <use xlink:href="#DejaVuSans-48"/>
       <use x="63.623047" xlink:href="#DejaVuSans-46"/>
       <use x="95.410156" xlink:href="#DejaVuSans-50"/>
      </g>
     </g>
    </g>
    <g id="xtick_3">
     <g id="line2d_4">
      <g>
       <use style="stroke:#000000;stroke-width:0.8;" x="117.079125" xlink:href="#mbf074c158f" y="228.439219"/>
      </g>
     </g>
     <g id="text_3">
      <!-- 0.4 -->
      <defs>
       <path d="M 37.796875 64.3125 
L 12.890625 25.390625 
L 37.796875 25.390625 
z
M 35.203125 72.90625 
L 47.609375 72.90625 
L 47.609375 25.390625 
L 58.015625 25.390625 
L 58.015625 17.1875 
L 47.609375 17.1875 
L 47.609375 0 
L 37.796875 0 
L 37.796875 17.1875 
L 4.890625 17.1875 
L 4.890625 26.703125 
z
" id="DejaVuSans-52"/>
      </defs>
      <g transform="translate(109.127563 243.037656)scale(0.1 -0.1)">
       <use xlink:href="#DejaVuSans-48"/>
       <use x="63.623047" xlink:href="#DejaVuSans-46"/>
       <use x="95.410156" xlink:href="#DejaVuSans-52"/>
      </g>
     </g>
    </g>
    <g id="xtick_4">
     <g id="line2d_5">
      <g>
       <use style="stroke:#000000;stroke-width:0.8;" x="160.567125" xlink:href="#mbf074c158f" y="228.439219"/>
      </g>
     </g>
     <g id="text_4">
      <!-- 0.6 -->
      <defs>
       <path d="M 33.015625 40.375 
Q 26.375 40.375 22.484375 35.828125 
Q 18.609375 31.296875 18.609375 23.390625 
Q 18.609375 15.53125 22.484375 10.953125 
Q 26.375 6.390625 33.015625 6.390625 
Q 39.65625 6.390625 43.53125 10.953125 
Q 47.40625 15.53125 47.40625 23.390625 
Q 47.40625 31.296875 43.53125 35.828125 
Q 39.65625 40.375 33.015625 40.375 
z
M 52.59375 71.296875 
L 52.59375 62.3125 
Q 48.875 64.0625 45.09375 64.984375 
Q 41.3125 65.921875 37.59375 65.921875 
Q 27.828125 65.921875 22.671875 59.328125 
Q 17.53125 52.734375 16.796875 39.40625 
Q 19.671875 43.65625 24.015625 45.921875 
Q 28.375 48.1875 33.59375 48.1875 
Q 44.578125 48.1875 50.953125 41.515625 
Q 57.328125 34.859375 57.328125 23.390625 
Q 57.328125 12.15625 50.6875 5.359375 
Q 44.046875 -1.421875 33.015625 -1.421875 
Q 20.359375 -1.421875 13.671875 8.265625 
Q 6.984375 17.96875 6.984375 36.375 
Q 6.984375 53.65625 15.1875 63.9375 
Q 23.390625 74.21875 37.203125 74.21875 
Q 40.921875 74.21875 44.703125 73.484375 
Q 48.484375 72.75 52.59375 71.296875 
z
" id="DejaVuSans-54"/>
      </defs>
      <g transform="translate(152.615563 243.037656)scale(0.1 -0.1)">
       <use xlink:href="#DejaVuSans-48"/>
       <use x="63.623047" xlink:href="#DejaVuSans-46"/>
       <use x="95.410156" xlink:href="#DejaVuSans-54"/>
      </g>
     </g>
    </g>
    <g id="xtick_5">
     <g id="line2d_6">
      <g>
       <use style="stroke:#000000;stroke-width:0.8;" x="204.055125" xlink:href="#mbf074c158f" y="228.439219"/>
      </g>
     </g>
     <g id="text_5">
      <!-- 0.8 -->
      <defs>
       <path d="M 31.78125 34.625 
Q 24.75 34.625 20.71875 30.859375 
Q 16.703125 27.09375 16.703125 20.515625 
Q 16.703125 13.921875 20.71875 10.15625 
Q 24.75 6.390625 31.78125 6.390625 
Q 38.8125 6.390625 42.859375 10.171875 
Q 46.921875 13.96875 46.921875 20.515625 
Q 46.921875 27.09375 42.890625 30.859375 
Q 38.875 34.625 31.78125 34.625 
z
M 21.921875 38.8125 
Q 15.578125 40.375 12.03125 44.71875 
Q 8.5 49.078125 8.5 55.328125 
Q 8.5 64.0625 14.71875 69.140625 
Q 20.953125 74.21875 31.78125 74.21875 
Q 42.671875 74.21875 48.875 69.140625 
Q 55.078125 64.0625 55.078125 55.328125 
Q 55.078125 49.078125 51.53125 44.71875 
Q 48 40.375 41.703125 38.8125 
Q 48.828125 37.15625 52.796875 32.3125 
Q 56.78125 27.484375 56.78125 20.515625 
Q 56.78125 9.90625 50.3125 4.234375 
Q 43.84375 -1.421875 31.78125 -1.421875 
Q 19.734375 -1.421875 13.25 4.234375 
Q 6.78125 9.90625 6.78125 20.515625 
Q 6.78125 27.484375 10.78125 32.3125 
Q 14.796875 37.15625 21.921875 38.8125 
z
M 18.3125 54.390625 
Q 18.3125 48.734375 21.84375 45.5625 
Q 25.390625 42.390625 31.78125 42.390625 
Q 38.140625 42.390625 41.71875 45.5625 
Q 45.3125 48.734375 45.3125 54.390625 
Q 45.3125 60.0625 41.71875 63.234375 
Q 38.140625 66.40625 31.78125 66.40625 
Q 25.390625 66.40625 21.84375 63.234375 
Q 18.3125 60.0625 18.3125 54.390625 
z
" id="DejaVuSans-56"/>
      </defs>
      <g transform="translate(196.103563 243.037656)scale(0.1 -0.1)">
       <use xlink:href="#DejaVuSans-48"/>
       <use x="63.623047" xlink:href="#DejaVuSans-46"/>
       <use x="95.410156" xlink:href="#DejaVuSans-56"/>
      </g>
     </g>
    </g>
    <g id="xtick_6">
     <g id="line2d_7">
      <g>
       <use style="stroke:#000000;stroke-width:0.8;" x="247.543125" xlink:href="#mbf074c158f" y="228.439219"/>
      </g>
     </g>
     <g id="text_6">
      <!-- 1.0 -->
      <defs>
       <path d="M 12.40625 8.296875 
L 28.515625 8.296875 
L 28.515625 63.921875 
L 10.984375 60.40625 
L 10.984375 69.390625 
L 28.421875 72.90625 
L 38.28125 72.90625 
L 38.28125 8.296875 
L 54.390625 8.296875 
L 54.390625 0 
L 12.40625 0 
z
" id="DejaVuSans-49"/>
      </defs>
      <g transform="translate(239.591562 243.037656)scale(0.1 -0.1)">
       <use xlink:href="#DejaVuSans-49"/>
       <use x="63.623047" xlink:href="#DejaVuSans-46"/>
       <use x="95.410156" xlink:href="#DejaVuSans-48"/>
      </g>
     </g>
    </g>
   </g>
   <g id="matplotlib.axis_2">
    <g id="ytick_1">
     <g id="line2d_8">
      <defs>
       <path d="M 0 0 
L -3.5 0 
" id="m964fb3d60a" style="stroke:#000000;stroke-width:0.8;"/>
      </defs>
      <g>
       <use style="stroke:#000000;stroke-width:0.8;" x="30.103125" xlink:href="#m964fb3d60a" y="228.439219"/>
      </g>
     </g>
     <g id="text_7">
      <!-- 0.0 -->
      <g transform="translate(7.2 232.238437)scale(0.1 -0.1)">
       <use xlink:href="#DejaVuSans-48"/>
       <use x="63.623047" xlink:href="#DejaVuSans-46"/>
       <use x="95.410156" xlink:href="#DejaVuSans-48"/>
      </g>
     </g>
    </g>
    <g id="ytick_2">
     <g id="line2d_9">
      <g>
       <use style="stroke:#000000;stroke-width:0.8;" x="30.103125" xlink:href="#m964fb3d60a" y="184.951219"/>
      </g>
     </g>
     <g id="text_8">
      <!-- 0.2 -->
      <g transform="translate(7.2 188.750437)scale(0.1 -0.1)">
       <use xlink:href="#DejaVuSans-48"/>
       <use x="63.623047" xlink:href="#DejaVuSans-46"/>
       <use x="95.410156" xlink:href="#DejaVuSans-50"/>
      </g>
     </g>
    </g>
    <g id="ytick_3">
     <g id="line2d_10">
      <g>
       <use style="stroke:#000000;stroke-width:0.8;" x="30.103125" xlink:href="#m964fb3d60a" y="141.463219"/>
      </g>
     </g>
     <g id="text_9">
      <!-- 0.4 -->
      <g transform="translate(7.2 145.262437)scale(0.1 -0.1)">
       <use xlink:href="#DejaVuSans-48"/>
       <use x="63.623047" xlink:href="#DejaVuSans-46"/>
       <use x="95.410156" xlink:href="#DejaVuSans-52"/>
      </g>
     </g>
    </g>
    <g id="ytick_4">
     <g id="line2d_11">
      <g>
       <use style="stroke:#000000;stroke-width:0.8;" x="30.103125" xlink:href="#m964fb3d60a" y="97.975219"/>
      </g>
     </g>
     <g id="text_10">
      <!-- 0.6 -->
      <g transform="translate(7.2 101.774437)scale(0.1 -0.1)">
       <use xlink:href="#DejaVuSans-48"/>
       <use x="63.623047" xlink:href="#DejaVuSans-46"/>
       <use x="95.410156" xlink:href="#DejaVuSans-54"/>
      </g>
     </g>
    </g>
    <g id="ytick_5">
     <g id="line2d_12">
      <g>
       <use style="stroke:#000000;stroke-width:0.8;" x="30.103125" xlink:href="#m964fb3d60a" y="54.487219"/>
      </g>
     </g>
     <g id="text_11">
      <!-- 0.8 -->
      <g transform="translate(7.2 58.286437)scale(0.1 -0.1)">
       <use xlink:href="#DejaVuSans-48"/>
       <use x="63.623047" xlink:href="#DejaVuSans-46"/>
       <use x="95.410156" xlink:href="#DejaVuSans-56"/>
      </g>
     </g>
    </g>
    <g id="ytick_6">
     <g id="line2d_13">
      <g>
       <use style="stroke:#000000;stroke-width:0.8;" x="30.103125" xlink:href="#m964fb3d60a" y="10.999219"/>
      </g>
     </g>
     <g id="text_12">
      <!-- 1.0 -->
      <g transform="translate(7.2 14.798437)scale(0.1 -0.1)">
       <use xlink:href="#DejaVuSans-49"/>
       <use x="63.623047" xlink:href="#DejaVuSans-46"/>
       <use x="95.410156" xlink:href="#DejaVuSans-48"/>
      </g>
     </g>
    </g>
   </g>
   <g id="line2d_14"/>
   <g id="patch_3">
    <path d="M 30.103125 228.439219 
L 30.103125 10.999219 
" style="fill:none;stroke:#000000;stroke-linecap:square;stroke-linejoin:miter;stroke-width:0.8;"/>
   </g>
   <g id="patch_4">
    <path d="M 247.543125 228.439219 
L 247.543125 10.999219 
" style="fill:none;stroke:#000000;stroke-linecap:square;stroke-linejoin:miter;stroke-width:0.8;"/>
   </g>
   <g id="patch_5">
    <path d="M 30.103125 228.439219 
L 247.543125 228.439219 
" style="fill:none;stroke:#000000;stroke-linecap:square;stroke-linejoin:miter;stroke-width:0.8;"/>
   </g>
   <g id="patch_6">
    <path d="M 30.103125 10.999219 
L 247.543125 10.999219 
" style="fill:none;stroke:#000000;stroke-linecap:square;stroke-linejoin:miter;stroke-width:0.8;"/>
   </g>
  </g>
  <g id="axes_2">
   <g id="patch_7">
    <path clip-path="url(#pabc1758523)" d="M 264.283125 228.439219 
L 264.283125 222.562462 
L 264.283125 16.875976 
L 264.283125 10.999219 
L 275.155125 10.999219 
L 275.155125 16.875976 
L 275.155125 222.562462 
L 275.155125 228.439219 
z
" style="fill:#ffffff;stroke:#ffffff;stroke-linejoin:miter;stroke-width:0.01;"/>
   </g>
   <g id="QuadMesh_1">
    <path clip-path="url(#pabc1758523)" d="M 264.283125 228.439219 
L 275.155125 228.439219 
L 275.155125 222.562462 
L 264.283125 222.562462 
L 264.283125 228.439219 
" style="fill:#450559;"/>
    <path clip-path="url(#pabc1758523)" d="M 264.283125 222.562462 
L 275.155125 222.562462 
L 275.155125 216.685705 
L 264.283125 216.685705 
L 264.283125 222.562462 
" style="fill:#471063;"/>
    <path clip-path="url(#pabc1758523)" d="M 264.283125 216.685705 
L 275.155125 216.685705 
L 275.155125 210.808948 
L 264.283125 210.808948 
L 264.283125 216.685705 
" style="fill:#481a6c;"/>
    <path clip-path="url(#pabc1758523)" d="M 264.283125 210.808948 
L 275.155125 210.808948 
L 275.155125 204.932192 
L 264.283125 204.932192 
L 264.283125 210.808948 
" style="fill:#482374;"/>
    <path clip-path="url(#pabc1758523)" d="M 264.283125 204.932192 
L 275.155125 204.932192 
L 275.155125 199.055435 
L 264.283125 199.055435 
L 264.283125 204.932192 
" style="fill:#472c7a;"/>
    <path clip-path="url(#pabc1758523)" d="M 264.283125 199.055435 
L 275.155125 199.055435 
L 275.155125 193.178678 
L 264.283125 193.178678 
L 264.283125 199.055435 
" style="fill:#463480;"/>
    <path clip-path="url(#pabc1758523)" d="M 264.283125 193.178678 
L 275.155125 193.178678 
L 275.155125 187.301921 
L 264.283125 187.301921 
L 264.283125 193.178678 
" style="fill:#443b84;"/>
    <path clip-path="url(#pabc1758523)" d="M 264.283125 187.301921 
L 275.155125 187.301921 
L 275.155125 181.425165 
L 264.283125 181.425165 
L 264.283125 187.301921 
" style="fill:#414487;"/>
    <path clip-path="url(#pabc1758523)" d="M 264.283125 181.425165 
L 275.155125 181.425165 
L 275.155125 175.548408 
L 264.283125 175.548408 
L 264.283125 181.425165 
" style="fill:#3e4c8a;"/>
    <path clip-path="url(#pabc1758523)" d="M 264.283125 175.548408 
L 275.155125 175.548408 
L 275.155125 169.671651 
L 264.283125 169.671651 
L 264.283125 175.548408 
" style="fill:#3a538b;"/>
    <path clip-path="url(#pabc1758523)" d="M 264.283125 169.671651 
L 275.155125 169.671651 
L 275.155125 163.794894 
L 264.283125 163.794894 
L 264.283125 169.671651 
" style="fill:#375b8d;"/>
    <path clip-path="url(#pabc1758523)" d="M 264.283125 163.794894 
L 275.155125 163.794894 
L 275.155125 157.918138 
L 264.283125 157.918138 
L 264.283125 163.794894 
" style="fill:#33628d;"/>
    <path clip-path="url(#pabc1758523)" d="M 264.283125 157.918138 
L 275.155125 157.918138 
L 275.155125 152.041381 
L 264.283125 152.041381 
L 264.283125 157.918138 
" style="fill:#30698e;"/>
    <path clip-path="url(#pabc1758523)" d="M 264.283125 152.041381 
L 275.155125 152.041381 
L 275.155125 146.164624 
L 264.283125 146.164624 
L 264.283125 152.041381 
" style="fill:#2d708e;"/>
    <path clip-path="url(#pabc1758523)" d="M 264.283125 146.164624 
L 275.155125 146.164624 
L 275.155125 140.287867 
L 264.283125 140.287867 
L 264.283125 146.164624 
" style="fill:#2a768e;"/>
    <path clip-path="url(#pabc1758523)" d="M 264.283125 140.287867 
L 275.155125 140.287867 
L 275.155125 134.411111 
L 264.283125 134.411111 
L 264.283125 140.287867 
" style="fill:#287d8e;"/>
    <path clip-path="url(#pabc1758523)" d="M 264.283125 134.411111 
L 275.155125 134.411111 
L 275.155125 128.534354 
L 264.283125 128.534354 
L 264.283125 134.411111 
" style="fill:#25838e;"/>
    <path clip-path="url(#pabc1758523)" d="M 264.283125 128.534354 
L 275.155125 128.534354 
L 275.155125 122.657597 
L 264.283125 122.657597 
L 264.283125 128.534354 
" style="fill:#238a8d;"/>
    <path clip-path="url(#pabc1758523)" d="M 264.283125 122.657597 
L 275.155125 122.657597 
L 275.155125 116.78084 
L 264.283125 116.78084 
L 264.283125 122.657597 
" style="fill:#21918c;"/>
    <path clip-path="url(#pabc1758523)" d="M 264.283125 116.78084 
L 275.155125 116.78084 
L 275.155125 110.904084 
L 264.283125 110.904084 
L 264.283125 116.78084 
" style="fill:#1f968b;"/>
    <path clip-path="url(#pabc1758523)" d="M 264.283125 110.904084 
L 275.155125 110.904084 
L 275.155125 105.027327 
L 264.283125 105.027327 
L 264.283125 110.904084 
" style="fill:#1e9d89;"/>
    <path clip-path="url(#pabc1758523)" d="M 264.283125 105.027327 
L 275.155125 105.027327 
L 275.155125 99.15057 
L 264.283125 99.15057 
L 264.283125 105.027327 
" style="fill:#20a386;"/>
    <path clip-path="url(#pabc1758523)" d="M 264.283125 99.15057 
L 275.155125 99.15057 
L 275.155125 93.273813 
L 264.283125 93.273813 
L 264.283125 99.15057 
" style="fill:#24aa83;"/>
    <path clip-path="url(#pabc1758523)" d="M 264.283125 93.273813 
L 275.155125 93.273813 
L 275.155125 87.397057 
L 264.283125 87.397057 
L 264.283125 93.273813 
" style="fill:#2ab07f;"/>
    <path clip-path="url(#pabc1758523)" d="M 264.283125 87.397057 
L 275.155125 87.397057 
L 275.155125 81.5203 
L 264.283125 81.5203 
L 264.283125 87.397057 
" style="fill:#34b679;"/>
    <path clip-path="url(#pabc1758523)" d="M 264.283125 81.5203 
L 275.155125 81.5203 
L 275.155125 75.643543 
L 264.283125 75.643543 
L 264.283125 81.5203 
" style="fill:#3fbc73;"/>
    <path clip-path="url(#pabc1758523)" d="M 264.283125 75.643543 
L 275.155125 75.643543 
L 275.155125 69.766786 
L 264.283125 69.766786 
L 264.283125 75.643543 
" style="fill:#4cc26c;"/>
    <path clip-path="url(#pabc1758523)" d="M 264.283125 69.766786 
L 275.155125 69.766786 
L 275.155125 63.89003 
L 264.283125 63.89003 
L 264.283125 69.766786 
" style="fill:#5ac864;"/>
    <path clip-path="url(#pabc1758523)" d="M 264.283125 63.89003 
L 275.155125 63.89003 
L 275.155125 58.013273 
L 264.283125 58.013273 
L 264.283125 63.89003 
" style="fill:#69cd5b;"/>
    <path clip-path="url(#pabc1758523)" d="M 264.283125 58.013273 
L 275.155125 58.013273 
L 275.155125 52.136516 
L 264.283125 52.136516 
L 264.283125 58.013273 
" style="fill:#7ad151;"/>
    <path clip-path="url(#pabc1758523)" d="M 264.283125 52.136516 
L 275.155125 52.136516 
L 275.155125 46.259759 
L 264.283125 46.259759 
L 264.283125 52.136516 
" style="fill:#8bd646;"/>
    <path clip-path="url(#pabc1758523)" d="M 264.283125 46.259759 
L 275.155125 46.259759 
L 275.155125 40.383003 
L 264.283125 40.383003 
L 264.283125 46.259759 
" style="fill:#9bd93c;"/>
    <path clip-path="url(#pabc1758523)" d="M 264.283125 40.383003 
L 275.155125 40.383003 
L 275.155125 34.506246 
L 264.283125 34.506246 
L 264.283125 40.383003 
" style="fill:#addc30;"/>
    <path clip-path="url(#pabc1758523)" d="M 264.283125 34.506246 
L 275.155125 34.506246 
L 275.155125 28.629489 
L 264.283125 28.629489 
L 264.283125 34.506246 
" style="fill:#c0df25;"/>
    <path clip-path="url(#pabc1758523)" d="M 264.283125 28.629489 
L 275.155125 28.629489 
L 275.155125 22.752732 
L 264.283125 22.752732 
L 264.283125 28.629489 
" style="fill:#d2e21b;"/>
    <path clip-path="url(#pabc1758523)" d="M 264.283125 22.752732 
L 275.155125 22.752732 
L 275.155125 16.875976 
L 264.283125 16.875976 
L 264.283125 22.752732 
" style="fill:#e5e419;"/>
    <path clip-path="url(#pabc1758523)" d="M 264.283125 16.875976 
L 275.155125 16.875976 
L 275.155125 10.999219 
L 264.283125 10.999219 
L 264.283125 16.875976 
" style="fill:#f6e620;"/>
   </g>
   <g id="matplotlib.axis_3"/>
   <g id="matplotlib.axis_4">
    <g id="ytick_7">
     <g id="line2d_15">
      <defs>
       <path d="M 0 0 
L 3.5 0 
" id="m1489fca909" style="stroke:#000000;stroke-width:0.8;"/>
      </defs>
      <g>
       <use style="stroke:#000000;stroke-width:0.8;" x="275.155125" xlink:href="#m1489fca909" y="228.439219"/>
      </g>
     </g>
     <g id="text_13">
      <!-- 1.0 -->
      <g transform="translate(282.155125 232.238437)scale(0.1 -0.1)">
       <use xlink:href="#DejaVuSans-49"/>
       <use x="63.623047" xlink:href="#DejaVuSans-46"/>
       <use x="95.410156" xlink:href="#DejaVuSans-48"/>
      </g>
     </g>
    </g>
    <g id="ytick_8">
     <g id="line2d_16">
      <g>
       <use style="stroke:#000000;stroke-width:0.8;" x="275.155125" xlink:href="#m1489fca909" y="204.932192"/>
      </g>
     </g>
     <g id="text_14">
      <!-- 1.2 -->
      <g transform="translate(282.155125 208.73141)scale(0.1 -0.1)">
       <use xlink:href="#DejaVuSans-49"/>
       <use x="63.623047" xlink:href="#DejaVuSans-46"/>
       <use x="95.410156" xlink:href="#DejaVuSans-50"/>
      </g>
     </g>
    </g>
    <g id="ytick_9">
     <g id="line2d_17">
      <g>
       <use style="stroke:#000000;stroke-width:0.8;" x="275.155125" xlink:href="#m1489fca909" y="181.425165"/>
      </g>
     </g>
     <g id="text_15">
      <!-- 1.4 -->
      <g transform="translate(282.155125 185.224383)scale(0.1 -0.1)">
       <use xlink:href="#DejaVuSans-49"/>
       <use x="63.623047" xlink:href="#DejaVuSans-46"/>
       <use x="95.410156" xlink:href="#DejaVuSans-52"/>
      </g>
     </g>
    </g>
    <g id="ytick_10">
     <g id="line2d_18">
      <g>
       <use style="stroke:#000000;stroke-width:0.8;" x="275.155125" xlink:href="#m1489fca909" y="157.918138"/>
      </g>
     </g>
     <g id="text_16">
      <!-- 1.6 -->
      <g transform="translate(282.155125 161.717356)scale(0.1 -0.1)">
       <use xlink:href="#DejaVuSans-49"/>
       <use x="63.623047" xlink:href="#DejaVuSans-46"/>
       <use x="95.410156" xlink:href="#DejaVuSans-54"/>
      </g>
     </g>
    </g>
    <g id="ytick_11">
     <g id="line2d_19">
      <g>
       <use style="stroke:#000000;stroke-width:0.8;" x="275.155125" xlink:href="#m1489fca909" y="134.411111"/>
      </g>
     </g>
     <g id="text_17">
      <!-- 1.8 -->
      <g transform="translate(282.155125 138.210329)scale(0.1 -0.1)">
       <use xlink:href="#DejaVuSans-49"/>
       <use x="63.623047" xlink:href="#DejaVuSans-46"/>
       <use x="95.410156" xlink:href="#DejaVuSans-56"/>
      </g>
     </g>
    </g>
    <g id="ytick_12">
     <g id="line2d_20">
      <g>
       <use style="stroke:#000000;stroke-width:0.8;" x="275.155125" xlink:href="#m1489fca909" y="110.904084"/>
      </g>
     </g>
     <g id="text_18">
      <!-- 2.0 -->
      <g transform="translate(282.155125 114.703302)scale(0.1 -0.1)">
       <use xlink:href="#DejaVuSans-50"/>
       <use x="63.623047" xlink:href="#DejaVuSans-46"/>
       <use x="95.410156" xlink:href="#DejaVuSans-48"/>
      </g>
     </g>
    </g>
    <g id="ytick_13">
     <g id="line2d_21">
      <g>
       <use style="stroke:#000000;stroke-width:0.8;" x="275.155125" xlink:href="#m1489fca909" y="87.397057"/>
      </g>
     </g>
     <g id="text_19">
      <!-- 2.2 -->
      <g transform="translate(282.155125 91.196275)scale(0.1 -0.1)">
       <use xlink:href="#DejaVuSans-50"/>
       <use x="63.623047" xlink:href="#DejaVuSans-46"/>
       <use x="95.410156" xlink:href="#DejaVuSans-50"/>
      </g>
     </g>
    </g>
    <g id="ytick_14">
     <g id="line2d_22">
      <g>
       <use style="stroke:#000000;stroke-width:0.8;" x="275.155125" xlink:href="#m1489fca909" y="63.89003"/>
      </g>
     </g>
     <g id="text_20">
      <!-- 2.4 -->
      <g transform="translate(282.155125 67.689248)scale(0.1 -0.1)">
       <use xlink:href="#DejaVuSans-50"/>
       <use x="63.623047" xlink:href="#DejaVuSans-46"/>
       <use x="95.410156" xlink:href="#DejaVuSans-52"/>
      </g>
     </g>
    </g>
    <g id="ytick_15">
     <g id="line2d_23">
      <g>
       <use style="stroke:#000000;stroke-width:0.8;" x="275.155125" xlink:href="#m1489fca909" y="40.383003"/>
      </g>
     </g>
     <g id="text_21">
      <!-- 2.6 -->
      <g transform="translate(282.155125 44.182221)scale(0.1 -0.1)">
       <use xlink:href="#DejaVuSans-50"/>
       <use x="63.623047" xlink:href="#DejaVuSans-46"/>
       <use x="95.410156" xlink:href="#DejaVuSans-54"/>
      </g>
     </g>
    </g>
    <g id="ytick_16">
     <g id="line2d_24">
      <g>
       <use style="stroke:#000000;stroke-width:0.8;" x="275.155125" xlink:href="#m1489fca909" y="16.875976"/>
      </g>
     </g>
     <g id="text_22">
      <!-- 2.8 -->
      <g transform="translate(282.155125 20.675194)scale(0.1 -0.1)">
       <use xlink:href="#DejaVuSans-50"/>
       <use x="63.623047" xlink:href="#DejaVuSans-46"/>
       <use x="95.410156" xlink:href="#DejaVuSans-56"/>
      </g>
     </g>
    </g>
   </g>
   <g id="patch_8">
    <path d="M 264.283125 228.439219 
L 264.283125 222.562462 
L 264.283125 16.875976 
L 264.283125 10.999219 
L 275.155125 10.999219 
L 275.155125 16.875976 
L 275.155125 222.562462 
L 275.155125 228.439219 
z
" style="fill:none;stroke:#000000;stroke-linejoin:miter;stroke-width:0.8;"/>
   </g>
  </g>
 </g>
 <defs>
  <clipPath id="p40a5f22621">
   <rect height="217.44" width="217.44" x="30.103125" y="10.999219"/>
  </clipPath>
  <clipPath id="pabc1758523">
   <rect height="217.44" width="10.872" x="264.283125" y="10.999219"/>
  </clipPath>
 </defs>
</svg>
